<svg id="visual" viewBox="0 0 1920 1080" width="1920" height="1080" xmlns="http://www.w3.org/2000/svg" xmlns:xlink="http://www.w3.org/1999/xlink" version="1.1"><g stroke-width="1" stroke-linejoin="bevel"><path d="M984 548L965 458L867 548Z" fill="#f4f4f4" stroke="#f4f4f4"></path><path d="M965 458L875 443L867 548Z" fill="#e9e9e9" stroke="#e9e9e9"></path><path d="M965 458L901 401L875 443Z" fill="#e4e4e4" stroke="#e4e4e4"></path><path d="M760 407L789 527L875 443Z" fill="#f4f4f4" stroke="#f4f4f4"></path><path d="M875 443L789 527L867 548Z" fill="#ffffff" stroke="#ffffff"></path><path d="M984 548L1026 413L965 458Z" fill="#f4f4f4" stroke="#f4f4f4"></path><path d="M965 458L960 335L901 401Z" fill="#dfdfdf" stroke="#dfdfdf"></path><path d="M917 685L994 640L867 548Z" fill="#f4f4f4" stroke="#f4f4f4"></path><path d="M867 548L994 640L984 548Z" fill="#c9c9c9" stroke="#c9c9c9"></path><path d="M984 548L1093 554L1026 413Z" fill="#e9e9e9" stroke="#e9e9e9"></path><path d="M789 527L839 634L867 548Z" fill="#d9d9d9" stroke="#d9d9d9"></path><path d="M839 634L917 685L867 548Z" fill="#d9d9d9" stroke="#d9d9d9"></path><path d="M994 640L1093 554L984 548Z" fill="#c9c9c9" stroke="#c9c9c9"></path><path d="M1026 413L960 335L965 458Z" fill="#f4f4f4" stroke="#f4f4f4"></path><path d="M789 527L807 670L839 634Z" fill="#dfdfdf" stroke="#dfdfdf"></path><path d="M839 634L807 670L917 685Z" fill="#d4d4d4" stroke="#d4d4d4"></path><path d="M773 367L875 443L901 401Z" fill="#dfdfdf" stroke="#dfdfdf"></path><path d="M773 367L760 407L875 443Z" fill="#c9c9c9" stroke="#c9c9c9"></path><path d="M789 527L690 619L807 670Z" fill="#d4d4d4" stroke="#d4d4d4"></path><path d="M874 285L773 367L901 401Z" fill="#e4e4e4" stroke="#e4e4e4"></path><path d="M1172 431L1082 365L1026 413Z" fill="#fafafa" stroke="#fafafa"></path><path d="M1031 293L981 303L960 335Z" fill="#dfdfdf" stroke="#dfdfdf"></path><path d="M1031 293L960 335L1026 413Z" fill="#f4f4f4" stroke="#f4f4f4"></path><path d="M960 335L874 285L901 401Z" fill="#e9e9e9" stroke="#e9e9e9"></path><path d="M1067 747L1095 665L994 640Z" fill="#efefef" stroke="#efefef"></path><path d="M994 640L1095 665L1093 554Z" fill="#ffffff" stroke="#ffffff"></path><path d="M981 303L874 285L960 335Z" fill="#cecece" stroke="#cecece"></path><path d="M1231 615L1161 497L1093 554Z" fill="#d4d4d4" stroke="#d4d4d4"></path><path d="M1093 554L1161 497L1026 413Z" fill="#e4e4e4" stroke="#e4e4e4"></path><path d="M807 670L880 751L917 685Z" fill="#fafafa" stroke="#fafafa"></path><path d="M917 685L1067 747L994 640Z" fill="#efefef" stroke="#efefef"></path><path d="M1082 365L1031 293L1026 413Z" fill="#e4e4e4" stroke="#e4e4e4"></path><path d="M945 205L827 222L874 285Z" fill="#d4d4d4" stroke="#d4d4d4"></path><path d="M657 546L789 527L760 407Z" fill="#cecece" stroke="#cecece"></path><path d="M657 546L690 619L789 527Z" fill="#efefef" stroke="#efefef"></path><path d="M807 670L774 735L880 751Z" fill="#fafafa" stroke="#fafafa"></path><path d="M1180 756L1144 652L1095 665Z" fill="#f4f4f4" stroke="#f4f4f4"></path><path d="M1095 665L1144 652L1093 554Z" fill="#f4f4f4" stroke="#f4f4f4"></path><path d="M1219 415L1172 431L1161 497Z" fill="#cecece" stroke="#cecece"></path><path d="M1161 497L1172 431L1026 413Z" fill="#d9d9d9" stroke="#d9d9d9"></path><path d="M1082 365L1163 328L1031 293Z" fill="#fafafa" stroke="#fafafa"></path><path d="M690 619L774 735L807 670Z" fill="#ffffff" stroke="#ffffff"></path><path d="M637 414L657 546L760 407Z" fill="#d9d9d9" stroke="#d9d9d9"></path><path d="M1047 816L1067 747L917 685Z" fill="#c9c9c9" stroke="#c9c9c9"></path><path d="M774 735L871 801L880 751Z" fill="#d9d9d9" stroke="#d9d9d9"></path><path d="M880 751L1047 816L917 685Z" fill="#d9d9d9" stroke="#d9d9d9"></path><path d="M1172 431L1163 328L1082 365Z" fill="#f4f4f4" stroke="#f4f4f4"></path><path d="M671 311L760 407L773 367Z" fill="#d9d9d9" stroke="#d9d9d9"></path><path d="M633 362L637 414L760 407Z" fill="#dfdfdf" stroke="#dfdfdf"></path><path d="M827 222L758 258L874 285Z" fill="#c9c9c9" stroke="#c9c9c9"></path><path d="M874 285L758 258L773 367Z" fill="#d9d9d9" stroke="#d9d9d9"></path><path d="M945 205L981 303L1031 293Z" fill="#dfdfdf" stroke="#dfdfdf"></path><path d="M945 205L874 285L981 303Z" fill="#fafafa" stroke="#fafafa"></path><path d="M1079 219L945 205L1031 293Z" fill="#ffffff" stroke="#ffffff"></path><path d="M1282 547L1219 415L1161 497Z" fill="#c9c9c9" stroke="#c9c9c9"></path><path d="M1172 431L1219 415L1163 328Z" fill="#ffffff" stroke="#ffffff"></path><path d="M1213 720L1231 615L1144 652Z" fill="#e9e9e9" stroke="#e9e9e9"></path><path d="M1144 652L1231 615L1093 554Z" fill="#d9d9d9" stroke="#d9d9d9"></path><path d="M628 703L746 784L774 735Z" fill="#dfdfdf" stroke="#dfdfdf"></path><path d="M774 735L746 784L871 801Z" fill="#cecece" stroke="#cecece"></path><path d="M628 703L774 735L690 619Z" fill="#e4e4e4" stroke="#e4e4e4"></path><path d="M758 258L671 311L773 367Z" fill="#e9e9e9" stroke="#e9e9e9"></path><path d="M927 842L1047 816L880 751Z" fill="#c9c9c9" stroke="#c9c9c9"></path><path d="M1067 747L1180 756L1095 665Z" fill="#fafafa" stroke="#fafafa"></path><path d="M1256 347L1171 295L1163 328Z" fill="#fafafa" stroke="#fafafa"></path><path d="M1163 328L1171 295L1031 293Z" fill="#dfdfdf" stroke="#dfdfdf"></path><path d="M845 914L927 842L871 801Z" fill="#c9c9c9" stroke="#c9c9c9"></path><path d="M871 801L927 842L880 751Z" fill="#efefef" stroke="#efefef"></path><path d="M671 311L633 362L760 407Z" fill="#e4e4e4" stroke="#e4e4e4"></path><path d="M1171 295L1079 219L1031 293Z" fill="#d4d4d4" stroke="#d4d4d4"></path><path d="M1047 816L1124 787L1067 747Z" fill="#fafafa" stroke="#fafafa"></path><path d="M1124 787L1180 756L1067 747Z" fill="#d4d4d4" stroke="#d4d4d4"></path><path d="M552 580L690 619L657 546Z" fill="#e9e9e9" stroke="#e9e9e9"></path><path d="M564 671L628 703L690 619Z" fill="#cecece" stroke="#cecece"></path><path d="M552 580L657 546L543 451Z" fill="#ffffff" stroke="#ffffff"></path><path d="M1180 756L1213 720L1144 652Z" fill="#cecece" stroke="#cecece"></path><path d="M1372 588L1282 547L1231 615Z" fill="#d9d9d9" stroke="#d9d9d9"></path><path d="M1231 615L1282 547L1161 497Z" fill="#ffffff" stroke="#ffffff"></path><path d="M1219 415L1256 347L1163 328Z" fill="#e4e4e4" stroke="#e4e4e4"></path><path d="M1348 379L1256 347L1219 415Z" fill="#d4d4d4" stroke="#d4d4d4"></path><path d="M1171 295L1169 184L1079 219Z" fill="#cecece" stroke="#cecece"></path><path d="M671 311L584 367L633 362Z" fill="#c9c9c9" stroke="#c9c9c9"></path><path d="M633 362L584 367L637 414Z" fill="#dfdfdf" stroke="#dfdfdf"></path><path d="M845 914L965 884L927 842Z" fill="#c9c9c9" stroke="#c9c9c9"></path><path d="M927 842L965 884L1047 816Z" fill="#dfdfdf" stroke="#dfdfdf"></path><path d="M1047 816L1041 876L1124 787Z" fill="#f4f4f4" stroke="#f4f4f4"></path><path d="M1124 787L1185 870L1180 756Z" fill="#f4f4f4" stroke="#f4f4f4"></path><path d="M543 451L657 546L637 414Z" fill="#efefef" stroke="#efefef"></path><path d="M688 919L804 873L746 784Z" fill="#cecece" stroke="#cecece"></path><path d="M746 784L804 873L871 801Z" fill="#fafafa" stroke="#fafafa"></path><path d="M965 884L1041 876L1047 816Z" fill="#d9d9d9" stroke="#d9d9d9"></path><path d="M584 367L543 451L637 414Z" fill="#d9d9d9" stroke="#d9d9d9"></path><path d="M1372 588L1317 518L1282 547Z" fill="#f4f4f4" stroke="#f4f4f4"></path><path d="M1282 547L1317 518L1219 415Z" fill="#fafafa" stroke="#fafafa"></path><path d="M552 580L564 671L690 619Z" fill="#d4d4d4" stroke="#d4d4d4"></path><path d="M628 703L609 756L746 784Z" fill="#ffffff" stroke="#ffffff"></path><path d="M564 671L609 756L628 703Z" fill="#fafafa" stroke="#fafafa"></path><path d="M802 1022L845 914L804 873Z" fill="#fafafa" stroke="#fafafa"></path><path d="M804 873L845 914L871 801Z" fill="#dfdfdf" stroke="#dfdfdf"></path><path d="M965 884L1084 964L1041 876Z" fill="#d9d9d9" stroke="#d9d9d9"></path><path d="M543 451L522 582L552 580Z" fill="#e9e9e9" stroke="#e9e9e9"></path><path d="M552 580L522 582L564 671Z" fill="#d9d9d9" stroke="#d9d9d9"></path><path d="M1284 308L1169 184L1171 295Z" fill="#efefef" stroke="#efefef"></path><path d="M1079 219L1045 102L945 205Z" fill="#e4e4e4" stroke="#e4e4e4"></path><path d="M1256 347L1284 308L1171 295Z" fill="#e9e9e9" stroke="#e9e9e9"></path><path d="M1348 379L1284 308L1256 347Z" fill="#fafafa" stroke="#fafafa"></path><path d="M827 222L741 138L758 258Z" fill="#d9d9d9" stroke="#d9d9d9"></path><path d="M758 258L667 145L671 311Z" fill="#ffffff" stroke="#ffffff"></path><path d="M533 253L510 378L584 367Z" fill="#efefef" stroke="#efefef"></path><path d="M752 126L741 138L827 222Z" fill="#d9d9d9" stroke="#d9d9d9"></path><path d="M752 126L827 222L880 78Z" fill="#dfdfdf" stroke="#dfdfdf"></path><path d="M880 78L827 222L945 205Z" fill="#dfdfdf" stroke="#dfdfdf"></path><path d="M1169 184L1045 102L1079 219Z" fill="#d4d4d4" stroke="#d4d4d4"></path><path d="M1317 518L1348 442L1219 415Z" fill="#d4d4d4" stroke="#d4d4d4"></path><path d="M564 671L584 781L609 756Z" fill="#fafafa" stroke="#fafafa"></path><path d="M609 756L641 846L746 784Z" fill="#d9d9d9" stroke="#d9d9d9"></path><path d="M503 799L584 781L564 671Z" fill="#efefef" stroke="#efefef"></path><path d="M533 253L584 367L671 311Z" fill="#e4e4e4" stroke="#e4e4e4"></path><path d="M584 367L510 378L543 451Z" fill="#fafafa" stroke="#fafafa"></path><path d="M543 451L465 423L522 582Z" fill="#d9d9d9" stroke="#d9d9d9"></path><path d="M667 145L758 258L741 138Z" fill="#dfdfdf" stroke="#dfdfdf"></path><path d="M1003 57L880 78L945 205Z" fill="#d9d9d9" stroke="#d9d9d9"></path><path d="M584 781L641 846L609 756Z" fill="#c9c9c9" stroke="#c9c9c9"></path><path d="M1180 756L1250 842L1213 720Z" fill="#e9e9e9" stroke="#e9e9e9"></path><path d="M1337 717L1372 588L1231 615Z" fill="#f4f4f4" stroke="#f4f4f4"></path><path d="M1317 518L1401 568L1348 442Z" fill="#fafafa" stroke="#fafafa"></path><path d="M1041 876L1185 870L1124 787Z" fill="#e4e4e4" stroke="#e4e4e4"></path><path d="M1084 964L1185 870L1041 876Z" fill="#cecece" stroke="#cecece"></path><path d="M1348 442L1348 379L1219 415Z" fill="#ffffff" stroke="#ffffff"></path><path d="M649 110L741 138L752 126Z" fill="#fafafa" stroke="#fafafa"></path><path d="M649 110L667 145L741 138Z" fill="#efefef" stroke="#efefef"></path><path d="M1337 717L1231 615L1213 720Z" fill="#f4f4f4" stroke="#f4f4f4"></path><path d="M1348 442L1473 446L1348 379Z" fill="#dfdfdf" stroke="#dfdfdf"></path><path d="M1328 804L1337 717L1213 720Z" fill="#d9d9d9" stroke="#d9d9d9"></path><path d="M394 561L482 642L522 582Z" fill="#efefef" stroke="#efefef"></path><path d="M522 582L482 642L564 671Z" fill="#d4d4d4" stroke="#d4d4d4"></path><path d="M1185 870L1250 842L1180 756Z" fill="#cecece" stroke="#cecece"></path><path d="M1040 0L1003 57L1045 102Z" fill="#f4f4f4" stroke="#f4f4f4"></path><path d="M1045 102L1003 57L945 205Z" fill="#d4d4d4" stroke="#d4d4d4"></path><path d="M415 344L465 423L510 378Z" fill="#d9d9d9" stroke="#d9d9d9"></path><path d="M510 378L465 423L543 451Z" fill="#dfdfdf" stroke="#dfdfdf"></path><path d="M685 959L688 919L608 930Z" fill="#dfdfdf" stroke="#dfdfdf"></path><path d="M641 846L688 919L746 784Z" fill="#cecece" stroke="#cecece"></path><path d="M542 222L533 253L671 311Z" fill="#e9e9e9" stroke="#e9e9e9"></path><path d="M872 1006L965 884L845 914Z" fill="#cecece" stroke="#cecece"></path><path d="M987 1030L1084 964L965 884Z" fill="#dfdfdf" stroke="#dfdfdf"></path><path d="M1185 870L1206 925L1250 842Z" fill="#ffffff" stroke="#ffffff"></path><path d="M1456 607L1401 568L1372 588Z" fill="#e9e9e9" stroke="#e9e9e9"></path><path d="M1372 588L1401 568L1317 518Z" fill="#efefef" stroke="#efefef"></path><path d="M1475 345L1355 302L1348 379Z" fill="#d4d4d4" stroke="#d4d4d4"></path><path d="M1348 379L1355 302L1284 308Z" fill="#fafafa" stroke="#fafafa"></path><path d="M1284 308L1254 139L1169 184Z" fill="#ffffff" stroke="#ffffff"></path><path d="M1169 184L1113 71L1045 102Z" fill="#f4f4f4" stroke="#f4f4f4"></path><path d="M1254 139L1113 71L1169 184Z" fill="#e4e4e4" stroke="#e4e4e4"></path><path d="M667 145L542 222L671 311Z" fill="#e4e4e4" stroke="#e4e4e4"></path><path d="M533 253L449 269L510 378Z" fill="#f4f4f4" stroke="#f4f4f4"></path><path d="M731 0L649 110L752 126Z" fill="#ffffff" stroke="#ffffff"></path><path d="M667 145L649 110L542 222Z" fill="#cecece" stroke="#cecece"></path><path d="M860 0L752 126L880 78Z" fill="#efefef" stroke="#efefef"></path><path d="M802 1022L872 1006L845 914Z" fill="#d4d4d4" stroke="#d4d4d4"></path><path d="M482 642L458 678L564 671Z" fill="#d4d4d4" stroke="#d4d4d4"></path><path d="M608 930L688 919L641 846Z" fill="#f4f4f4" stroke="#f4f4f4"></path><path d="M390 653L458 678L482 642Z" fill="#ffffff" stroke="#ffffff"></path><path d="M1357 876L1328 804L1250 842Z" fill="#dfdfdf" stroke="#dfdfdf"></path><path d="M1250 842L1328 804L1213 720Z" fill="#efefef" stroke="#efefef"></path><path d="M1444 706L1456 607L1372 588Z" fill="#ffffff" stroke="#ffffff"></path><path d="M1351 162L1254 139L1284 308Z" fill="#f4f4f4" stroke="#f4f4f4"></path><path d="M1084 964L1206 925L1185 870Z" fill="#d4d4d4" stroke="#d4d4d4"></path><path d="M503 799L641 846L584 781Z" fill="#d4d4d4" stroke="#d4d4d4"></path><path d="M688 919L685 959L804 873Z" fill="#dfdfdf" stroke="#dfdfdf"></path><path d="M458 678L503 799L564 671Z" fill="#ffffff" stroke="#ffffff"></path><path d="M1040 0L973 0L1003 57Z" fill="#e9e9e9" stroke="#e9e9e9"></path><path d="M1003 57L973 0L880 78Z" fill="#f4f4f4" stroke="#f4f4f4"></path><path d="M1040 0L1045 102L1113 71Z" fill="#dfdfdf" stroke="#dfdfdf"></path><path d="M973 0L860 0L880 78Z" fill="#ffffff" stroke="#ffffff"></path><path d="M872 1006L987 1030L965 884Z" fill="#e9e9e9" stroke="#e9e9e9"></path><path d="M1084 964L1179 1000L1206 925Z" fill="#f4f4f4" stroke="#f4f4f4"></path><path d="M685 959L802 1022L804 873Z" fill="#cecece" stroke="#cecece"></path><path d="M872 1006L895 1080L987 1030Z" fill="#d4d4d4" stroke="#d4d4d4"></path><path d="M503 799L608 930L641 846Z" fill="#ffffff" stroke="#ffffff"></path><path d="M685 959L751 1080L802 1022Z" fill="#dfdfdf" stroke="#dfdfdf"></path><path d="M1119 0L1040 0L1113 71Z" fill="#efefef" stroke="#efefef"></path><path d="M363 414L394 561L465 423Z" fill="#dfdfdf" stroke="#dfdfdf"></path><path d="M465 423L394 561L522 582Z" fill="#e9e9e9" stroke="#e9e9e9"></path><path d="M458 678L413 817L503 799Z" fill="#d4d4d4" stroke="#d4d4d4"></path><path d="M501 172L533 253L542 222Z" fill="#ffffff" stroke="#ffffff"></path><path d="M501 172L449 269L533 253Z" fill="#d9d9d9" stroke="#d9d9d9"></path><path d="M449 269L415 344L510 378Z" fill="#fafafa" stroke="#fafafa"></path><path d="M1444 706L1372 588L1337 717Z" fill="#efefef" stroke="#efefef"></path><path d="M1401 568L1473 446L1348 442Z" fill="#cecece" stroke="#cecece"></path><path d="M568 87L501 172L542 222Z" fill="#d4d4d4" stroke="#d4d4d4"></path><path d="M568 87L542 222L649 110Z" fill="#fafafa" stroke="#fafafa"></path><path d="M1243 57L1119 0L1113 71Z" fill="#e4e4e4" stroke="#e4e4e4"></path><path d="M1112 1080L1179 1000L1084 964Z" fill="#d9d9d9" stroke="#d9d9d9"></path><path d="M1206 925L1357 876L1250 842Z" fill="#f4f4f4" stroke="#f4f4f4"></path><path d="M860 0L731 0L752 126Z" fill="#fafafa" stroke="#fafafa"></path><path d="M1456 607L1473 446L1401 568Z" fill="#cecece" stroke="#cecece"></path><path d="M1355 302L1351 162L1284 308Z" fill="#ffffff" stroke="#ffffff"></path><path d="M1426 218L1351 162L1355 302Z" fill="#d4d4d4" stroke="#d4d4d4"></path><path d="M1254 139L1243 57L1113 71Z" fill="#e9e9e9" stroke="#e9e9e9"></path><path d="M1446 818L1444 706L1337 717Z" fill="#d4d4d4" stroke="#d4d4d4"></path><path d="M1446 818L1337 717L1328 804Z" fill="#f4f4f4" stroke="#f4f4f4"></path><path d="M394 561L390 653L482 642Z" fill="#efefef" stroke="#efefef"></path><path d="M1337 60L1243 57L1254 139Z" fill="#e4e4e4" stroke="#e4e4e4"></path><path d="M600 0L568 87L649 110Z" fill="#efefef" stroke="#efefef"></path><path d="M1272 1030L1357 876L1206 925Z" fill="#dfdfdf" stroke="#dfdfdf"></path><path d="M329 626L384 678L390 653Z" fill="#cecece" stroke="#cecece"></path><path d="M390 653L384 678L458 678Z" fill="#cecece" stroke="#cecece"></path><path d="M503 799L452 885L608 930Z" fill="#ffffff" stroke="#ffffff"></path><path d="M802 1022L895 1080L872 1006Z" fill="#d9d9d9" stroke="#d9d9d9"></path><path d="M987 1030L1025 1080L1084 964Z" fill="#d9d9d9" stroke="#d9d9d9"></path><path d="M751 1080L895 1080L802 1022Z" fill="#dfdfdf" stroke="#dfdfdf"></path><path d="M895 1080L968 1080L987 1030Z" fill="#cecece" stroke="#cecece"></path><path d="M731 0L679 0L649 110Z" fill="#efefef" stroke="#efefef"></path><path d="M405 230L415 344L449 269Z" fill="#ffffff" stroke="#ffffff"></path><path d="M311 313L363 414L415 344Z" fill="#e9e9e9" stroke="#e9e9e9"></path><path d="M415 344L363 414L465 423Z" fill="#e4e4e4" stroke="#e4e4e4"></path><path d="M394 561L329 626L390 653Z" fill="#ffffff" stroke="#ffffff"></path><path d="M1473 446L1475 345L1348 379Z" fill="#e4e4e4" stroke="#e4e4e4"></path><path d="M968 1080L1025 1080L987 1030Z" fill="#d4d4d4" stroke="#d4d4d4"></path><path d="M1475 345L1431 232L1355 302Z" fill="#d4d4d4" stroke="#d4d4d4"></path><path d="M1337 60L1243 0L1243 57Z" fill="#ffffff" stroke="#ffffff"></path><path d="M1422 77L1426 218L1575 215Z" fill="#d4d4d4" stroke="#d4d4d4"></path><path d="M1431 232L1426 218L1355 302Z" fill="#fafafa" stroke="#fafafa"></path><path d="M1386 987L1405 856L1357 876Z" fill="#fafafa" stroke="#fafafa"></path><path d="M1357 876L1405 856L1328 804Z" fill="#fafafa" stroke="#fafafa"></path><path d="M384 214L405 230L501 172Z" fill="#efefef" stroke="#efefef"></path><path d="M501 172L405 230L449 269Z" fill="#e4e4e4" stroke="#e4e4e4"></path><path d="M692 1080L751 1080L685 959Z" fill="#e9e9e9" stroke="#e9e9e9"></path><path d="M384 678L413 817L458 678Z" fill="#e4e4e4" stroke="#e4e4e4"></path><path d="M608 930L612 1027L685 959Z" fill="#efefef" stroke="#efefef"></path><path d="M1025 1080L1112 1080L1084 964Z" fill="#e4e4e4" stroke="#e4e4e4"></path><path d="M1179 1000L1272 1030L1206 925Z" fill="#efefef" stroke="#efefef"></path><path d="M1473 446L1521 427L1475 345Z" fill="#efefef" stroke="#efefef"></path><path d="M1575 215L1426 218L1431 232Z" fill="#efefef" stroke="#efefef"></path><path d="M1565 520L1521 427L1473 446Z" fill="#d4d4d4" stroke="#d4d4d4"></path><path d="M1565 520L1473 446L1456 607Z" fill="#f4f4f4" stroke="#f4f4f4"></path><path d="M1565 520L1456 607L1564 610Z" fill="#d9d9d9" stroke="#d9d9d9"></path><path d="M482 963L612 1027L608 930Z" fill="#fafafa" stroke="#fafafa"></path><path d="M413 817L452 885L503 799Z" fill="#cecece" stroke="#cecece"></path><path d="M1405 856L1446 818L1328 804Z" fill="#e9e9e9" stroke="#e9e9e9"></path><path d="M1337 60L1254 139L1351 162Z" fill="#d4d4d4" stroke="#d4d4d4"></path><path d="M1243 57L1243 0L1119 0Z" fill="#dfdfdf" stroke="#dfdfdf"></path><path d="M304 567L329 626L394 561Z" fill="#d9d9d9" stroke="#d9d9d9"></path><path d="M384 678L328 710L413 817Z" fill="#efefef" stroke="#efefef"></path><path d="M679 0L600 0L649 110Z" fill="#dfdfdf" stroke="#dfdfdf"></path><path d="M568 87L487 82L501 172Z" fill="#ffffff" stroke="#ffffff"></path><path d="M1422 77L1337 60L1351 162Z" fill="#ffffff" stroke="#ffffff"></path><path d="M612 1027L692 1080L685 959Z" fill="#e9e9e9" stroke="#e9e9e9"></path><path d="M600 0L487 82L568 87Z" fill="#e9e9e9" stroke="#e9e9e9"></path><path d="M399 106L384 214L501 172Z" fill="#f4f4f4" stroke="#f4f4f4"></path><path d="M405 230L311 313L415 344Z" fill="#e4e4e4" stroke="#e4e4e4"></path><path d="M294 480L304 567L394 561Z" fill="#d9d9d9" stroke="#d9d9d9"></path><path d="M1263 1080L1272 1030L1179 1000Z" fill="#f4f4f4" stroke="#f4f4f4"></path><path d="M1516 856L1509 797L1446 818Z" fill="#fafafa" stroke="#fafafa"></path><path d="M294 480L394 561L363 414Z" fill="#e9e9e9" stroke="#e9e9e9"></path><path d="M329 626L328 710L384 678Z" fill="#ffffff" stroke="#ffffff"></path><path d="M421 929L482 963L452 885Z" fill="#e4e4e4" stroke="#e4e4e4"></path><path d="M181 598L328 710L329 626Z" fill="#c9c9c9" stroke="#c9c9c9"></path><path d="M452 885L482 963L608 930Z" fill="#cecece" stroke="#cecece"></path><path d="M612 1027L578 1080L692 1080Z" fill="#f4f4f4" stroke="#f4f4f4"></path><path d="M421 929L452 885L413 817Z" fill="#efefef" stroke="#efefef"></path><path d="M222 374L294 480L363 414Z" fill="#e9e9e9" stroke="#e9e9e9"></path><path d="M1564 610L1456 607L1444 706Z" fill="#e4e4e4" stroke="#e4e4e4"></path><path d="M1573 239L1431 232L1475 345Z" fill="#f4f4f4" stroke="#f4f4f4"></path><path d="M1509 797L1444 706L1446 818Z" fill="#c9c9c9" stroke="#c9c9c9"></path><path d="M1509 797L1523 742L1444 706Z" fill="#ffffff" stroke="#ffffff"></path><path d="M1523 742L1564 610L1444 706Z" fill="#c9c9c9" stroke="#c9c9c9"></path><path d="M384 214L311 313L405 230Z" fill="#c9c9c9" stroke="#c9c9c9"></path><path d="M1516 856L1446 818L1405 856Z" fill="#d4d4d4" stroke="#d4d4d4"></path><path d="M1640 692L1644 596L1564 610Z" fill="#fafafa" stroke="#fafafa"></path><path d="M389 952L421 929L330 916Z" fill="#fafafa" stroke="#fafafa"></path><path d="M1112 1080L1263 1080L1179 1000Z" fill="#f4f4f4" stroke="#f4f4f4"></path><path d="M1272 1030L1386 987L1357 876Z" fill="#f4f4f4" stroke="#f4f4f4"></path><path d="M1309 1080L1386 987L1272 1030Z" fill="#d4d4d4" stroke="#d4d4d4"></path><path d="M1567 341L1475 345L1521 427Z" fill="#e9e9e9" stroke="#e9e9e9"></path><path d="M1426 218L1422 77L1351 162Z" fill="#e9e9e9" stroke="#e9e9e9"></path><path d="M1337 60L1345 0L1243 0Z" fill="#cecece" stroke="#cecece"></path><path d="M1422 77L1345 0L1337 60Z" fill="#c9c9c9" stroke="#c9c9c9"></path><path d="M1591 466L1521 427L1565 520Z" fill="#fafafa" stroke="#fafafa"></path><path d="M1591 466L1567 341L1521 427Z" fill="#ffffff" stroke="#ffffff"></path><path d="M508 1080L612 1027L482 963Z" fill="#ffffff" stroke="#ffffff"></path><path d="M508 1080L578 1080L612 1027Z" fill="#efefef" stroke="#efefef"></path><path d="M487 82L399 106L501 172Z" fill="#f4f4f4" stroke="#f4f4f4"></path><path d="M209 258L261 329L311 313Z" fill="#fafafa" stroke="#fafafa"></path><path d="M437 0L399 106L487 82Z" fill="#d4d4d4" stroke="#d4d4d4"></path><path d="M1666 580L1591 466L1565 520Z" fill="#cecece" stroke="#cecece"></path><path d="M1513 986L1516 856L1405 856Z" fill="#f4f4f4" stroke="#f4f4f4"></path><path d="M1625 809L1640 692L1523 742Z" fill="#dfdfdf" stroke="#dfdfdf"></path><path d="M1263 1080L1309 1080L1272 1030Z" fill="#d9d9d9" stroke="#d9d9d9"></path><path d="M1386 987L1513 986L1405 856Z" fill="#d4d4d4" stroke="#d4d4d4"></path><path d="M1309 1080L1396 1011L1386 987Z" fill="#e9e9e9" stroke="#e9e9e9"></path><path d="M311 313L261 329L363 414Z" fill="#d9d9d9" stroke="#d9d9d9"></path><path d="M171 502L181 598L304 567Z" fill="#d9d9d9" stroke="#d9d9d9"></path><path d="M157 723L260 836L328 710Z" fill="#d4d4d4" stroke="#d4d4d4"></path><path d="M328 142L311 313L384 214Z" fill="#ffffff" stroke="#ffffff"></path><path d="M330 916L421 929L413 817Z" fill="#e9e9e9" stroke="#e9e9e9"></path><path d="M421 929L389 952L482 963Z" fill="#cecece" stroke="#cecece"></path><path d="M1667 256L1573 239L1567 341Z" fill="#d4d4d4" stroke="#d4d4d4"></path><path d="M1567 341L1573 239L1475 345Z" fill="#fafafa" stroke="#fafafa"></path><path d="M274 96L328 142L399 106Z" fill="#dfdfdf" stroke="#dfdfdf"></path><path d="M399 106L328 142L384 214Z" fill="#e9e9e9" stroke="#e9e9e9"></path><path d="M377 1080L508 1080L482 963Z" fill="#fafafa" stroke="#fafafa"></path><path d="M600 0L437 0L487 82Z" fill="#ffffff" stroke="#ffffff"></path><path d="M1667 256L1575 215L1573 239Z" fill="#e9e9e9" stroke="#e9e9e9"></path><path d="M1573 239L1575 215L1431 232Z" fill="#e9e9e9" stroke="#e9e9e9"></path><path d="M1422 77L1446 0L1345 0Z" fill="#e4e4e4" stroke="#e4e4e4"></path><path d="M209 258L222 374L261 329Z" fill="#c9c9c9" stroke="#c9c9c9"></path><path d="M261 329L222 374L363 414Z" fill="#cecece" stroke="#cecece"></path><path d="M260 836L330 916L413 817Z" fill="#dfdfdf" stroke="#dfdfdf"></path><path d="M260 836L413 817L328 710Z" fill="#ffffff" stroke="#ffffff"></path><path d="M389 952L377 1080L482 963Z" fill="#dfdfdf" stroke="#dfdfdf"></path><path d="M1564 610L1644 596L1565 520Z" fill="#d9d9d9" stroke="#d9d9d9"></path><path d="M1591 466L1671 361L1567 341Z" fill="#c9c9c9" stroke="#c9c9c9"></path><path d="M1640 692L1564 610L1523 742Z" fill="#d9d9d9" stroke="#d9d9d9"></path><path d="M1557 57L1446 0L1422 77Z" fill="#c9c9c9" stroke="#c9c9c9"></path><path d="M437 0L401 0L399 106Z" fill="#efefef" stroke="#efefef"></path><path d="M1625 809L1523 742L1509 797Z" fill="#e9e9e9" stroke="#e9e9e9"></path><path d="M181 598L329 626L304 567Z" fill="#f4f4f4" stroke="#f4f4f4"></path><path d="M1696 616L1666 580L1644 596Z" fill="#f4f4f4" stroke="#f4f4f4"></path><path d="M1644 596L1666 580L1565 520Z" fill="#efefef" stroke="#efefef"></path><path d="M87 415L180 449L222 374Z" fill="#f4f4f4" stroke="#f4f4f4"></path><path d="M222 374L180 449L294 480Z" fill="#dfdfdf" stroke="#dfdfdf"></path><path d="M171 502L304 567L294 480Z" fill="#d9d9d9" stroke="#d9d9d9"></path><path d="M1396 1011L1513 986L1386 987Z" fill="#dfdfdf" stroke="#dfdfdf"></path><path d="M1516 856L1625 809L1509 797Z" fill="#d9d9d9" stroke="#d9d9d9"></path><path d="M1435 1080L1513 986L1396 1011Z" fill="#fafafa" stroke="#fafafa"></path><path d="M180 449L171 502L294 480Z" fill="#f4f4f4" stroke="#f4f4f4"></path><path d="M1623 881L1625 809L1516 856Z" fill="#cecece" stroke="#cecece"></path><path d="M1640 692L1696 616L1644 596Z" fill="#efefef" stroke="#efefef"></path><path d="M174 168L209 258L328 142Z" fill="#fafafa" stroke="#fafafa"></path><path d="M328 142L209 258L311 313Z" fill="#efefef" stroke="#efefef"></path><path d="M180 449L87 415L171 502Z" fill="#e9e9e9" stroke="#e9e9e9"></path><path d="M1721 453L1671 361L1591 466Z" fill="#cecece" stroke="#cecece"></path><path d="M1575 215L1557 57L1422 77Z" fill="#fafafa" stroke="#fafafa"></path><path d="M1309 1080L1435 1080L1396 1011Z" fill="#cecece" stroke="#cecece"></path><path d="M401 0L274 96L399 106Z" fill="#d4d4d4" stroke="#d4d4d4"></path><path d="M1745 713L1696 616L1640 692Z" fill="#dfdfdf" stroke="#dfdfdf"></path><path d="M1666 580L1721 453L1591 466Z" fill="#cecece" stroke="#cecece"></path><path d="M1623 113L1557 57L1575 215Z" fill="#ffffff" stroke="#ffffff"></path><path d="M1734 366L1667 256L1671 361Z" fill="#e4e4e4" stroke="#e4e4e4"></path><path d="M1671 361L1667 256L1567 341Z" fill="#e9e9e9" stroke="#e9e9e9"></path><path d="M1513 986L1623 881L1516 856Z" fill="#e9e9e9" stroke="#e9e9e9"></path><path d="M1625 809L1745 713L1640 692Z" fill="#efefef" stroke="#efefef"></path><path d="M1657 969L1623 881L1513 986Z" fill="#d4d4d4" stroke="#d4d4d4"></path><path d="M314 1032L377 1080L389 952Z" fill="#e9e9e9" stroke="#e9e9e9"></path><path d="M314 1032L389 952L330 916Z" fill="#d9d9d9" stroke="#d9d9d9"></path><path d="M197 853L232 889L260 836Z" fill="#dfdfdf" stroke="#dfdfdf"></path><path d="M260 836L232 889L330 916Z" fill="#d9d9d9" stroke="#d9d9d9"></path><path d="M91 699L157 723L181 598Z" fill="#d4d4d4" stroke="#d4d4d4"></path><path d="M181 598L157 723L328 710Z" fill="#e9e9e9" stroke="#e9e9e9"></path><path d="M1726 545L1721 453L1666 580Z" fill="#c9c9c9" stroke="#c9c9c9"></path><path d="M1790 521L1726 545L1845 665Z" fill="#f4f4f4" stroke="#f4f4f4"></path><path d="M1696 616L1726 545L1666 580Z" fill="#c9c9c9" stroke="#c9c9c9"></path><path d="M192 998L314 1032L330 916Z" fill="#f4f4f4" stroke="#f4f4f4"></path><path d="M157 723L197 853L260 836Z" fill="#fafafa" stroke="#fafafa"></path><path d="M192 998L297 1080L314 1032Z" fill="#ffffff" stroke="#ffffff"></path><path d="M1675 153L1623 113L1575 215Z" fill="#c9c9c9" stroke="#c9c9c9"></path><path d="M1435 1080L1506 1080L1513 986Z" fill="#d9d9d9" stroke="#d9d9d9"></path><path d="M1593 0L1562 0L1557 57Z" fill="#d4d4d4" stroke="#d4d4d4"></path><path d="M1557 57L1562 0L1446 0Z" fill="#f4f4f4" stroke="#f4f4f4"></path><path d="M1721 453L1734 366L1671 361Z" fill="#ffffff" stroke="#ffffff"></path><path d="M1667 256L1675 153L1575 215Z" fill="#d9d9d9" stroke="#d9d9d9"></path><path d="M1780 478L1734 366L1721 453Z" fill="#fafafa" stroke="#fafafa"></path><path d="M272 0L231 71L274 96Z" fill="#ffffff" stroke="#ffffff"></path><path d="M274 96L174 168L328 142Z" fill="#d4d4d4" stroke="#d4d4d4"></path><path d="M76 351L87 415L222 374Z" fill="#e9e9e9" stroke="#e9e9e9"></path><path d="M231 71L174 168L274 96Z" fill="#ffffff" stroke="#ffffff"></path><path d="M70 642L91 699L181 598Z" fill="#efefef" stroke="#efefef"></path><path d="M401 0L272 0L274 96Z" fill="#efefef" stroke="#efefef"></path><path d="M65 204L79 272L174 168Z" fill="#cecece" stroke="#cecece"></path><path d="M1744 222L1675 153L1667 256Z" fill="#efefef" stroke="#efefef"></path><path d="M1623 113L1593 0L1557 57Z" fill="#ffffff" stroke="#ffffff"></path><path d="M1657 969L1690 861L1623 881Z" fill="#e4e4e4" stroke="#e4e4e4"></path><path d="M1623 881L1690 861L1625 809Z" fill="#e9e9e9" stroke="#e9e9e9"></path><path d="M1691 93L1593 0L1623 113Z" fill="#c9c9c9" stroke="#c9c9c9"></path><path d="M1749 830L1745 713L1625 809Z" fill="#d9d9d9" stroke="#d9d9d9"></path><path d="M1726 545L1780 478L1721 453Z" fill="#d9d9d9" stroke="#d9d9d9"></path><path d="M76 351L222 374L209 258Z" fill="#efefef" stroke="#efefef"></path><path d="M314 1032L297 1080L377 1080Z" fill="#e9e9e9" stroke="#e9e9e9"></path><path d="M192 998L330 916L232 889Z" fill="#c9c9c9" stroke="#c9c9c9"></path><path d="M70 642L181 598L54 554Z" fill="#efefef" stroke="#efefef"></path><path d="M157 723L71 798L197 853Z" fill="#d4d4d4" stroke="#d4d4d4"></path><path d="M197 853L192 998L232 889Z" fill="#f4f4f4" stroke="#f4f4f4"></path><path d="M1790 521L1780 478L1726 545Z" fill="#efefef" stroke="#efefef"></path><path d="M1756 248L1744 222L1667 256Z" fill="#f4f4f4" stroke="#f4f4f4"></path><path d="M1620 1080L1657 969L1513 986Z" fill="#f4f4f4" stroke="#f4f4f4"></path><path d="M1690 861L1749 830L1625 809Z" fill="#ffffff" stroke="#ffffff"></path><path d="M1845 665L1726 545L1696 616Z" fill="#ffffff" stroke="#ffffff"></path><path d="M79 272L76 351L209 258Z" fill="#e4e4e4" stroke="#e4e4e4"></path><path d="M54 554L181 598L171 502Z" fill="#fafafa" stroke="#fafafa"></path><path d="M54 554L171 502L87 415Z" fill="#fafafa" stroke="#fafafa"></path><path d="M1756 248L1667 256L1781 295Z" fill="#fafafa" stroke="#fafafa"></path><path d="M1675 153L1691 93L1623 113Z" fill="#dfdfdf" stroke="#dfdfdf"></path><path d="M1667 256L1734 366L1781 295Z" fill="#f4f4f4" stroke="#f4f4f4"></path><path d="M1781 295L1734 366L1801 353Z" fill="#f4f4f4" stroke="#f4f4f4"></path><path d="M0 486L54 554L87 415Z" fill="#cecece" stroke="#cecece"></path><path d="M1744 222L1691 93L1675 153Z" fill="#cecece" stroke="#cecece"></path><path d="M1737 0L1691 93L1819 78Z" fill="#d9d9d9" stroke="#d9d9d9"></path><path d="M71 798L157 723L91 699Z" fill="#e9e9e9" stroke="#e9e9e9"></path><path d="M91 862L192 998L197 853Z" fill="#efefef" stroke="#efefef"></path><path d="M174 168L79 272L209 258Z" fill="#ffffff" stroke="#ffffff"></path><path d="M0 368L0 486L87 415Z" fill="#f4f4f4" stroke="#f4f4f4"></path><path d="M78 111L174 168L231 71Z" fill="#c9c9c9" stroke="#c9c9c9"></path><path d="M1738 950L1749 830L1690 861Z" fill="#efefef" stroke="#efefef"></path><path d="M1745 713L1845 665L1696 616Z" fill="#ffffff" stroke="#ffffff"></path><path d="M1801 353L1734 366L1780 478Z" fill="#e9e9e9" stroke="#e9e9e9"></path><path d="M1819 78L1691 93L1744 222Z" fill="#e4e4e4" stroke="#e4e4e4"></path><path d="M272 0L199 0L231 71Z" fill="#e9e9e9" stroke="#e9e9e9"></path><path d="M1920 465L1801 353L1780 478Z" fill="#efefef" stroke="#efefef"></path><path d="M1506 1080L1620 1080L1513 986Z" fill="#efefef" stroke="#efefef"></path><path d="M1657 969L1738 950L1690 861Z" fill="#e9e9e9" stroke="#e9e9e9"></path><path d="M0 690L71 798L91 699Z" fill="#d9d9d9" stroke="#d9d9d9"></path><path d="M0 690L91 699L70 642Z" fill="#ffffff" stroke="#ffffff"></path><path d="M71 798L91 862L197 853Z" fill="#d9d9d9" stroke="#d9d9d9"></path><path d="M78 111L65 204L174 168Z" fill="#e9e9e9" stroke="#e9e9e9"></path><path d="M0 368L87 415L76 351Z" fill="#dfdfdf" stroke="#dfdfdf"></path><path d="M1710 1080L1738 950L1657 969Z" fill="#f4f4f4" stroke="#f4f4f4"></path><path d="M1749 830L1786 846L1745 713Z" fill="#cecece" stroke="#cecece"></path><path d="M1804 881L1786 846L1749 830Z" fill="#dfdfdf" stroke="#dfdfdf"></path><path d="M1790 521L1920 465L1780 478Z" fill="#ffffff" stroke="#ffffff"></path><path d="M0 368L76 351L0 275Z" fill="#e4e4e4" stroke="#e4e4e4"></path><path d="M54 554L0 594L70 642Z" fill="#dfdfdf" stroke="#dfdfdf"></path><path d="M0 486L0 565L54 554Z" fill="#c9c9c9" stroke="#c9c9c9"></path><path d="M0 565L0 594L54 554Z" fill="#f4f4f4" stroke="#f4f4f4"></path><path d="M0 960L80 991L91 862Z" fill="#d9d9d9" stroke="#d9d9d9"></path><path d="M1860 694L1845 665L1745 713Z" fill="#fafafa" stroke="#fafafa"></path><path d="M123 1080L180 1080L192 998Z" fill="#cecece" stroke="#cecece"></path><path d="M192 998L180 1080L297 1080Z" fill="#d4d4d4" stroke="#d4d4d4"></path><path d="M0 275L76 351L79 272Z" fill="#e4e4e4" stroke="#e4e4e4"></path><path d="M199 0L78 111L231 71Z" fill="#efefef" stroke="#efefef"></path><path d="M65 204L0 275L79 272Z" fill="#ffffff" stroke="#ffffff"></path><path d="M0 594L0 690L70 642Z" fill="#dfdfdf" stroke="#dfdfdf"></path><path d="M91 862L80 991L192 998Z" fill="#c9c9c9" stroke="#c9c9c9"></path><path d="M1920 732L1860 694L1786 846Z" fill="#e4e4e4" stroke="#e4e4e4"></path><path d="M1786 846L1860 694L1745 713Z" fill="#d9d9d9" stroke="#d9d9d9"></path><path d="M1920 576L1920 465L1790 521Z" fill="#f4f4f4" stroke="#f4f4f4"></path><path d="M1838 987L1804 881L1738 950Z" fill="#d9d9d9" stroke="#d9d9d9"></path><path d="M1738 950L1804 881L1749 830Z" fill="#c9c9c9" stroke="#c9c9c9"></path><path d="M0 154L0 275L65 204Z" fill="#ffffff" stroke="#ffffff"></path><path d="M1840 193L1744 222L1756 248Z" fill="#d9d9d9" stroke="#d9d9d9"></path><path d="M1691 93L1737 0L1593 0Z" fill="#d4d4d4" stroke="#d4d4d4"></path><path d="M1840 193L1756 248L1781 295Z" fill="#ffffff" stroke="#ffffff"></path><path d="M1620 1080L1710 1080L1657 969Z" fill="#d4d4d4" stroke="#d4d4d4"></path><path d="M1920 254L1781 295L1801 353Z" fill="#ffffff" stroke="#ffffff"></path><path d="M1920 254L1840 193L1781 295Z" fill="#c9c9c9" stroke="#c9c9c9"></path><path d="M0 820L91 862L71 798Z" fill="#cecece" stroke="#cecece"></path><path d="M0 690L0 820L71 798Z" fill="#efefef" stroke="#efefef"></path><path d="M80 991L123 1080L192 998Z" fill="#cecece" stroke="#cecece"></path><path d="M0 820L0 869L91 862Z" fill="#fafafa" stroke="#fafafa"></path><path d="M80 991L0 1080L123 1080Z" fill="#efefef" stroke="#efefef"></path><path d="M0 77L0 154L78 111Z" fill="#f4f4f4" stroke="#f4f4f4"></path><path d="M78 111L0 154L65 204Z" fill="#cecece" stroke="#cecece"></path><path d="M1840 193L1819 78L1744 222Z" fill="#ffffff" stroke="#ffffff"></path><path d="M1920 576L1790 521L1845 665Z" fill="#d4d4d4" stroke="#d4d4d4"></path><path d="M1840 193L1920 137L1819 78Z" fill="#c9c9c9" stroke="#c9c9c9"></path><path d="M1920 664L1920 576L1845 665Z" fill="#ffffff" stroke="#ffffff"></path><path d="M1920 664L1845 665L1860 694Z" fill="#f4f4f4" stroke="#f4f4f4"></path><path d="M199 0L71 0L78 111Z" fill="#d9d9d9" stroke="#d9d9d9"></path><path d="M1819 78L1783 0L1737 0Z" fill="#fafafa" stroke="#fafafa"></path><path d="M1920 465L1920 373L1801 353Z" fill="#cecece" stroke="#cecece"></path><path d="M1920 732L1786 846L1920 832Z" fill="#ffffff" stroke="#ffffff"></path><path d="M1920 732L1920 664L1860 694Z" fill="#d4d4d4" stroke="#d4d4d4"></path><path d="M1920 832L1786 846L1804 881Z" fill="#d9d9d9" stroke="#d9d9d9"></path><path d="M71 0L0 77L78 111Z" fill="#fafafa" stroke="#fafafa"></path><path d="M0 869L0 960L91 862Z" fill="#efefef" stroke="#efefef"></path><path d="M1920 373L1920 254L1801 353Z" fill="#c9c9c9" stroke="#c9c9c9"></path><path d="M1819 78L1920 0L1783 0Z" fill="#e4e4e4" stroke="#e4e4e4"></path><path d="M1824 1080L1838 987L1738 950Z" fill="#e9e9e9" stroke="#e9e9e9"></path><path d="M1920 919L1920 832L1804 881Z" fill="#ffffff" stroke="#ffffff"></path><path d="M71 0L0 0L0 77Z" fill="#e4e4e4" stroke="#e4e4e4"></path><path d="M1710 1080L1824 1080L1738 950Z" fill="#e4e4e4" stroke="#e4e4e4"></path><path d="M1838 987L1920 919L1804 881Z" fill="#fafafa" stroke="#fafafa"></path><path d="M1920 254L1920 137L1840 193Z" fill="#f4f4f4" stroke="#f4f4f4"></path><path d="M1920 989L1920 919L1838 987Z" fill="#ffffff" stroke="#ffffff"></path><path d="M1920 137L1920 107L1819 78Z" fill="#ffffff" stroke="#ffffff"></path><path d="M0 960L0 1080L80 991Z" fill="#dfdfdf" stroke="#dfdfdf"></path><path d="M1920 1080L1920 989L1838 987Z" fill="#efefef" stroke="#efefef"></path><path d="M1920 107L1920 0L1819 78Z" fill="#c9c9c9" stroke="#c9c9c9"></path><path d="M1824 1080L1920 1080L1838 987Z" fill="#c9c9c9" stroke="#c9c9c9"></path></g></svg>